<svg width="20" height="20" viewBox="0 0 20 20" fill="none" xmlns="http://www.w3.org/2000/svg">
<g id="Social media logo">
<path id="Subtract" fill-rule="evenodd" clip-rule="evenodd" d="M0.469111 2.24594C0 3.14902 0 4.33546 0 6.70833V13.2917C0 15.6645 0 16.851 0.469111 17.7541C0.864425 18.5151 1.48493 19.1356 2.24594 19.5309C3.14902 20 4.33546 20 6.70833 20H13.2917C15.6645 20 16.851 20 17.7541 19.5309C18.5151 19.1356 19.1356 18.5151 19.5309 17.7541C20 16.851 20 15.6645 20 13.2917V6.70833C20 4.33546 20 3.14902 19.5309 2.24594C19.1356 1.48493 18.5151 0.864425 17.7541 0.469111C16.851 0 15.6645 0 13.2917 0H6.70833C4.33546 0 3.14902 0 2.24594 0.469111C1.48493 0.864425 0.864425 1.48493 0.469111 2.24594ZM14.3341 9.99997L13.8896 12.7777H11.6674V20H8.33408V12.7777H5.83408V9.99997H8.33408V7.77775C8.33408 5.27775 9.94519 3.88886 12.223 3.88886C12.9452 3.88886 13.723 3.99997 14.4452 4.11108V6.66664H13.1674C11.9452 6.66664 11.6674 7.27775 11.6674 8.05552V9.99997H14.3341Z" fill="#EDEDED"/>
</g>
</svg>
