<svg width="20" height="20" viewBox="0 0 20 20" fill="none" xmlns="http://www.w3.org/2000/svg">
<g id="Social media logo" clip-path="url(#clip0_2_117)">
<path id="Subtract" fill-rule="evenodd" clip-rule="evenodd" d="M0.480768 2.24583C0.0116577 3.14891 0.0116577 4.33535 0.0116577 6.70823V13.2916C0.0116577 15.6644 0.0116577 16.8509 0.480768 17.754C0.876083 18.515 1.49658 19.1355 2.2576 19.5308C3.16067 19.9999 4.34711 19.9999 6.71999 19.9999H13.3033C15.6762 19.9999 16.8626 19.9999 17.7657 19.5308C18.5267 19.1355 19.1472 18.515 19.5425 17.754C20.0117 16.8509 20.0117 15.6644 20.0117 13.2916V6.70823C20.0117 4.33535 20.0117 3.14891 19.5425 2.24583C19.1472 1.48482 18.5267 0.864319 17.7657 0.469004C16.8626 -0.000106812 15.6762 -0.000106812 13.3033 -0.000106812H6.71999C4.34711 -0.000106812 3.16067 -0.000106812 2.2576 0.469004C1.49658 0.864319 0.876083 1.48482 0.480768 2.24583ZM7.0017 2.77139C7.77743 2.73609 8.0253 2.72745 10.0004 2.72745H9.99812C11.9738 2.72745 12.2208 2.73609 12.9965 2.77139C13.7707 2.80685 14.2995 2.92942 14.7631 3.10927C15.2419 3.29488 15.6464 3.54336 16.051 3.94791C16.4555 4.35215 16.704 4.75791 16.8903 5.23624C17.0691 5.69867 17.1918 6.22715 17.2282 7.00139C17.2631 7.77715 17.2721 8.02503 17.2721 10.0002C17.2721 11.9753 17.2631 12.2226 17.2282 12.9984C17.1918 13.7723 17.0691 14.3009 16.8903 14.7635C16.704 15.2417 16.4555 15.6475 16.051 16.0517C15.6469 16.4562 15.2417 16.7053 14.7636 16.8911C14.3009 17.0709 13.7718 17.1935 12.9976 17.229C12.2218 17.2643 11.9747 17.2729 9.99948 17.2729C8.02454 17.2729 7.77682 17.2643 7.00109 17.229C6.22702 17.1935 5.6984 17.0709 5.23569 16.8911C4.75767 16.7053 4.35193 16.4562 3.94785 16.0517C3.54347 15.6475 3.29499 15.2417 3.10909 14.7634C2.92939 14.3009 2.80682 13.7725 2.77122 12.9982C2.73607 12.2225 2.72728 11.9753 2.72728 10.0002C2.72728 8.02503 2.73637 7.777 2.77107 7.00124C2.80591 6.2273 2.92864 5.69867 3.10893 5.23609C3.29529 4.75791 3.54377 4.35215 3.9483 3.94791C4.35253 3.54352 4.75828 3.29503 5.2366 3.10927C5.69901 2.92942 6.22748 2.80685 7.0017 2.77139ZM9.75801 4.03799C9.61094 4.03792 9.47467 4.03786 9.34799 4.03806V4.03624C7.99258 4.03776 7.73258 4.04685 7.06169 4.07715C6.35262 4.10973 5.96764 4.22791 5.71128 4.32791C5.3719 4.46003 5.12948 4.61761 4.87494 4.87215C4.6204 5.1267 4.46253 5.36912 4.33072 5.70851C4.23117 5.96488 4.11269 6.34973 4.08027 7.05882C4.04542 7.82548 4.03845 8.05457 4.03845 9.99669C4.03845 11.9388 4.04542 12.1691 4.08027 12.9358C4.11254 13.6449 4.23117 14.0297 4.33072 14.2858C4.46283 14.6253 4.6204 14.8671 4.87494 15.1217C5.12948 15.3762 5.3719 15.5338 5.71128 15.6656C5.96779 15.7652 6.35262 15.8837 7.06169 15.9164C7.82834 15.9512 8.05848 15.9588 10.0004 15.9588C11.9422 15.9588 12.1724 15.9512 12.9391 15.9164C13.6482 15.884 14.0333 15.7658 14.2894 15.6658C14.6289 15.534 14.8705 15.3764 15.1251 15.1218C15.3796 14.8675 15.5375 14.6258 15.6693 14.2864C15.7689 14.0303 15.8873 13.6455 15.9198 12.9364C15.9546 12.1697 15.9622 11.9394 15.9622 9.99851C15.9622 8.0576 15.9546 7.8273 15.9198 7.06064C15.8875 6.35154 15.7689 5.9667 15.6693 5.71064C15.5372 5.37124 15.3796 5.12882 15.1251 4.87427C14.8707 4.61973 14.6287 4.46215 14.2894 4.33033C14.033 4.23079 13.6482 4.1123 12.9391 4.07988C12.1723 4.04503 11.9422 4.03806 10.0004 4.03806C9.91647 4.03806 9.83573 4.03802 9.75801 4.03799ZM13.0097 6.11806C13.0097 5.63609 13.4006 5.24564 13.8824 5.24564V5.24533C14.3642 5.24533 14.7551 5.63624 14.7551 6.11806C14.7551 6.59988 14.3642 6.99079 13.8824 6.99079C13.4006 6.99079 13.0097 6.59988 13.0097 6.11806ZM6.26566 10.0002C6.26566 7.93765 7.9378 6.26541 10.0002 6.26533C12.0628 6.26533 13.7345 7.9376 13.7345 10.0002C13.7345 12.0628 12.0629 13.7343 10.0004 13.7343C7.93788 13.7343 6.26566 12.0628 6.26566 10.0002ZM12.4246 10.0002C12.4246 8.66124 11.3391 7.57594 10.0004 7.57594C8.66149 7.57594 7.57622 8.66124 7.57622 10.0002C7.57622 11.339 8.66149 12.4244 10.0004 12.4244C11.3391 12.4244 12.4246 11.339 12.4246 10.0002Z" fill="#EDEDED"/>
</g>
<defs>
<clipPath id="clip0_2_117">
<rect width="20" height="20" fill="white"/>
</clipPath>
</defs>
</svg>
