<svg width="20" height="20" viewBox="0 0 20 20" fill="none" xmlns="http://www.w3.org/2000/svg">
<g id="Social media logo" clip-path="url(#clip0_2_129)">
<path id="Subtract" fill-rule="evenodd" clip-rule="evenodd" d="M0.469111 2.24594C0 3.14902 0 4.33546 0 6.70833V13.2917C0 15.6645 0 16.851 0.469111 17.7541C0.864425 18.5151 1.48493 19.1356 2.24594 19.5309C3.14902 20 4.33546 20 6.70833 20H13.2917C15.6645 20 16.851 20 17.7541 19.5309C18.5151 19.1356 19.1356 18.5151 19.5309 17.7541C20 16.851 20 15.6645 20 13.2917V6.70833C20 4.33546 20 3.14902 19.5309 2.24594C19.1356 1.48493 18.5151 0.864425 17.7541 0.469111C16.851 0 15.6645 0 13.2917 0H6.70833C4.33546 0 3.14902 0 2.24594 0.469111C1.48493 0.864425 0.864425 1.48493 0.469111 2.24594ZM3.23016 9.32162L15.2711 4.67741C15.821 4.42781 16.3518 4.80958 16.1419 5.65125L14.0914 15.3139C13.9483 16.0006 13.5332 16.1649 12.9584 15.8478L9.83471 13.5398L9.7766 13.5963C9.06662 14.2866 8.44101 14.8949 8.33328 15.0003L8.32176 15.0116C8.15302 15.1766 8.01371 15.3128 7.70816 15.3128C7.39099 15.3128 7.36453 15.2189 7.30081 14.9929C7.28318 14.9304 7.26271 14.8578 7.23244 14.7743L6.08341 11.2514L3.08036 10.3141C2.41322 10.1097 2.40835 9.65134 3.23016 9.32162ZM13.3236 6.76554L6.5547 11.0361L7.69533 14.533L7.92101 12.126L13.7169 6.8966C13.9713 6.67079 13.6615 6.56061 13.3236 6.76554Z" fill="#EDEDED"/>
</g>
<defs>
<clipPath id="clip0_2_129">
<rect width="20" height="20" fill="white"/>
</clipPath>
</defs>
</svg>
