<svg width="20" height="20" viewBox="0 0 20 20" fill="none" xmlns="http://www.w3.org/2000/svg">
<g id="Social media logo">
<path id="Subtract" fill-rule="evenodd" clip-rule="evenodd" d="M0.469111 2.24594C0 3.14902 0 4.33546 0 6.70833V13.2917C0 15.6645 0 16.851 0.469111 17.7541C0.864425 18.5151 1.48493 19.1356 2.24594 19.5309C3.14902 20 4.33546 20 6.70833 20H13.2917C15.6645 20 16.851 20 17.7541 19.5309C18.5151 19.1356 19.1356 18.5151 19.5309 17.7541C20 16.851 20 15.6645 20 13.2917V6.70833C20 4.33546 20 3.14902 19.5309 2.24594C19.1356 1.48493 18.5151 0.864425 17.7541 0.469111C16.851 0 15.6645 0 13.2917 0H6.70833C4.33546 0 3.14902 0 2.24594 0.469111C1.48493 0.864425 0.864425 1.48493 0.469111 2.24594ZM15.2605 4.82458C14.0006 3.5638 12.351 2.83378 10.5807 2.74678L10.2251 2.73798C6.30158 2.73798 3.10832 5.92948 3.10674 9.85224C3.10623 11.1062 3.43401 12.3301 4.05694 13.4091L3.04706 17.0959L6.82057 16.1066C7.86028 16.6734 9.03087 16.9721 10.2222 16.9726H10.2252C14.1483 16.9726 17.3418 13.7807 17.3434 9.85788C17.3441 7.9569 16.6044 6.16934 15.2605 4.82458ZM7.21147 14.9467L6.99539 14.8186L4.75616 15.4057L5.35385 13.2235L5.21317 12.9997C4.62093 12.0582 4.30815 10.97 4.30859 9.85265C4.30989 6.59221 6.96402 3.93964 10.2275 3.93964C11.8078 3.94016 13.2932 4.5561 14.4103 5.67391C15.5273 6.79165 16.1422 8.2774 16.1415 9.85748C16.1402 13.1181 13.4861 15.771 10.2252 15.771H10.2228C9.1611 15.7706 8.11985 15.4855 7.21147 14.9467ZM13.5677 11.3897C13.6917 11.4496 13.7755 11.49 13.8113 11.5497C13.8558 11.6239 13.8558 11.9798 13.7076 12.3951C13.5594 12.8103 12.8488 13.1894 12.507 13.2404C12.2006 13.2862 11.8129 13.3053 11.3868 13.17C11.1285 13.088 10.7972 12.9787 10.3728 12.7955C8.70545 12.0758 7.57864 10.4606 7.36562 10.1553C7.3507 10.1339 7.34026 10.1189 7.33443 10.1112L7.33288 10.1091C7.23833 9.98296 6.60816 9.1423 6.60816 8.27216C6.60816 7.4532 7.0107 7.02395 7.19592 6.82644C7.20859 6.81293 7.22024 6.80051 7.23068 6.78912C7.39371 6.61111 7.5864 6.56665 7.70499 6.56665C7.82354 6.56665 7.94223 6.56778 8.04585 6.57291C8.05863 6.57355 8.07192 6.57347 8.08567 6.57339C8.18932 6.57279 8.31856 6.57204 8.44605 6.87807C8.49506 6.99578 8.56676 7.17025 8.64239 7.35428C8.79547 7.72679 8.96466 8.13851 8.99443 8.1981C9.03888 8.28709 9.06854 8.39086 9.00926 8.50952C9.00034 8.52736 8.99209 8.5442 8.98421 8.56028C8.9397 8.65111 8.90695 8.71793 8.8314 8.8061C8.80176 8.84069 8.77113 8.87797 8.7405 8.91525C8.67922 8.98984 8.61793 9.06444 8.56457 9.11756C8.47554 9.20617 8.38287 9.30242 8.4866 9.48037C8.59036 9.65834 8.94731 10.2405 9.47607 10.7119C10.0445 11.2186 10.5386 11.4328 10.7889 11.5414C10.8378 11.5626 10.8774 11.5797 10.9064 11.5942C11.0842 11.6832 11.188 11.6684 11.2917 11.5497C11.3955 11.4311 11.7364 11.0306 11.8549 10.8527C11.9735 10.6748 12.092 10.7044 12.2551 10.7637C12.4181 10.823 13.2926 11.2531 13.4704 11.3421C13.5051 11.3595 13.5376 11.3751 13.5677 11.3897Z" fill="#EDEDED"/>
</g>
</svg>
