<svg width="20" height="20" viewBox="0 0 20 20" fill="none" xmlns="http://www.w3.org/2000/svg">
<g id="Social media logo">
<path id="Subtract" fill-rule="evenodd" clip-rule="evenodd" d="M0.469111 2.24594C0 3.14902 0 4.33546 0 6.70833V13.2917C0 15.6645 0 16.851 0.469111 17.7541C0.864425 18.5151 1.48493 19.1356 2.24594 19.5309C3.14902 20 4.33546 20 6.70833 20H13.2917C15.6645 20 16.851 20 17.7541 19.5309C18.5151 19.1356 19.1356 18.5151 19.5309 17.7541C20 16.851 20 15.6645 20 13.2917V6.70833C20 4.33546 20 3.14902 19.5309 2.24594C19.1356 1.48493 18.5151 0.864425 17.7541 0.469111C16.851 0 15.6645 0 13.2917 0H6.70833C4.33546 0 3.14902 0 2.24594 0.469111C1.48493 0.864425 0.864425 1.48493 0.469111 2.24594ZM15.5578 7.93796C15.5578 7.81304 15.5562 7.68817 15.5514 7.56325C16.0687 7.16011 16.5166 6.65484 16.8724 6.08135C16.3982 6.30847 15.8867 6.46167 15.3506 6.5298C15.8986 6.17776 16.3179 5.61575 16.5166 4.94573C16.0041 5.27506 15.4378 5.51352 14.8332 5.63844C14.3504 5.08199 13.6624 4.73558 12.9006 4.73558C11.4375 4.73558 10.2516 6.01885 10.2516 7.60304C10.2516 7.82448 10.2747 8.04587 10.3199 8.25596C8.11871 8.13672 6.16619 6.99541 4.86021 5.25792C4.63088 5.68377 4.50061 6.17779 4.50061 6.70017C4.50061 7.69384 4.96842 8.57392 5.68009 9.09063C5.24566 9.07359 4.83654 8.94306 4.47909 8.73297V8.76707C4.47909 10.1582 5.39262 11.3165 6.60547 11.5777C6.38152 11.6458 6.14789 11.6799 5.90726 11.6799C5.73661 11.6799 5.56974 11.6628 5.4077 11.6287C5.74523 12.7643 6.72391 13.599 7.88292 13.616C6.97638 14.3883 5.83352 14.8483 4.59267 14.8483C4.37896 14.8483 4.16847 14.8312 3.96122 14.8085C5.13369 15.6205 6.52526 16.0974 8.02181 16.0974C12.8937 16.0974 15.5578 11.7252 15.5578 7.93796Z" fill="#EDEDED"/>
</g>
</svg>
